<svg fill="none" height="44" viewBox="0 0 44 44" width="44" xmlns="http://www.w3.org/2000/svg" xmlns:xlink="http://www.w3.org/1999/xlink"><linearGradient id="a" gradientUnits="userSpaceOnUse" x1="44" x2="-7.60975" y1="46.2" y2="11.231"><stop offset="0" stop-color="#7d40ff"/><stop offset="1" stop-color="#02a4ff"/></linearGradient><rect fill="url(#a)" fill-opacity=".15" height="44" rx="8" width="44"/><path clip-rule="evenodd" d="m30.8866 14.9551.2781-3.9551-3.955.2781-4.3259 4.3258 3.677 3.677zm-12.2977 12.3286 3.1825-3.1825-3.7078-3.677-3.1826 3.1826-1.2051-1.236-.8342.8343 6.1488 6.118.8034-.8343zm-4.4024-1.8462 2.5355 2.5355-4.1865 4.1864-2.5355-2.5354zm-.7566-14.4375.2781 3.9551 12.3287 12.3286-1.236 1.2051.8343.8343 6.118-6.118-.8343-.8343-1.205 1.236-12.3287-12.3287zm16.9838 14.4375-2.5355 2.5355 4.1865 4.1864 2.5355-2.5354z" fill="#5273e0" fill-rule="evenodd"/></svg>