<svg fill="none" height="44" viewBox="0 0 44 44" width="44" xmlns="http://www.w3.org/2000/svg" xmlns:xlink="http://www.w3.org/1999/xlink"><linearGradient id="a" gradientUnits="userSpaceOnUse" x1="9.63877" x2="-29.0277" y1="-19.3332" y2="38.7221"><stop offset="0" stop-color="#16b4eb"/><stop offset="1" stop-color="#23e73c"/></linearGradient><rect fill="url(#a)" fill-opacity=".15" height="44" rx="8" width="44"/><path d="m7.61042 11.3982c-.3712.1632-.59297.5478-.56626.9524.42354 6.4135.84709 12.8496 1.27089 19.3069.04395.6697.72488 1.1064 1.37082.9242 8.90103-2.5101 17.80233 3.2955 26.70373-.6161.3712-.1631.593-.5478.5662-.9524-.4235-6.4134-.847-12.8496-1.2708-19.3069-.044-.6696-.7249-1.1063-1.3709-.9241-8.901 2.5101-17.8023-3.29552-26.70368.616z" fill="#33bcb7"/><path clip-rule="evenodd" d="m13.226 17.7401c-.0209.0475-.0446.0944-.0711.1404-.3903.6761-1.2548.9077-1.9308.5174-.6761-.3903-.9077-1.2548-.5174-1.9308.222-.3845.5974-.6253 1.0043-.6896-.1477-.3845-.1269-.83.0951-1.2145.3903-.676 1.2547-.9077 1.9308-.5174.676.3904.9076 1.2548.5173 1.9308-.0265.046-.0552.0898-.0859.1316l16.3359 9.4315c.0208-.0474.0445-.0943.071-.1402.3903-.6761 1.2547-.9077 1.9308-.5174.676.3903.9076 1.2548.5173 1.9308-.222.3845-.5974.6253-1.0043.6896.1478.3845.127.83-.095 1.2145-.3903.676-1.2548.9076-1.9308.5173s-.9077-1.2547-.5174-1.9308c.0266-.0459.0553-.0899.086-.1317z" fill="#1f3a31" fill-rule="evenodd"/><path clip-rule="evenodd" d="m30.774 17.7401c.0209.0475.0446.0944.0711.1404.3903.6761 1.2548.9077 1.9308.5174.6761-.3903.9077-1.2548.5174-1.9308-.222-.3845-.5974-.6253-1.0043-.6896.1477-.3845.1269-.83-.0951-1.2145-.3903-.676-1.2547-.9077-1.9308-.5174-.676.3904-.9076 1.2548-.5173 1.9308.0265.046.0552.0898.0859.1316l-16.3359 9.4315c-.0208-.0474-.0445-.0943-.071-.1402-.3903-.6761-1.2547-.9077-1.9308-.5174-.676.3903-.9076 1.2548-.5173 1.9308.222.3845.5974.6253 1.0043.6896-.1478.3845-.127.83.095 1.2145.3903.676 1.2548.9076 1.9308.5173s.9077-1.2547.5174-1.9308c-.0266-.0459-.0553-.0899-.086-.1317z" fill="#1f3a31" fill-rule="evenodd"/><path d="m28.0802 23.3394-.0008.0019c-.3348.764-.8106 1.4508-1.4175 2.0402-.2084.2039-.4292.3916-.6604.5634-.0653.9376-.8642 1.6551-1.8076 1.6551h-4.4799c-.9686 0-1.7865-.755-1.8132-1.7301-.1954-.151-.3832-.3139-.5613-.4885-.6066-.5893-1.0827-1.276-1.4178-2.0399l-.0012-.0027c-.344-.7947-.5205-1.6387-.5205-2.5085 0-.8692.1766-1.7147.5206-2.5084l.001-.0023c.3352-.7647.8114-1.4526 1.4189-2.042zm0 0c.3456-.7961.5198-1.6404.5198-2.5091 0-.8683-.1741-1.714-.52-2.5092l-.0005-.0013m.0007 5.0196-.0007-5.0196m0 0c-.335-.7649-.8111-1.453-1.4186-2.0424m1.4186 2.0424-1.4186-2.0424m0 0c-.6056-.5877-1.3107-1.0514-2.0974-1.3738m2.0974 1.3738-2.0974-1.3738m0 0c-.8115-.3335-1.6749-.5036-2.5635-.5036-.8882 0-1.7501.1703-2.562.5034zm-5.1257-.0001c-.7866.3224-1.4916.7861-2.0971 1.3739z" fill="#33bcb7" stroke="#33bcb7" stroke-width="1.2"/><path d="m27.5298 23.1005c.3127-.7202.4702-1.4831.4702-2.2702 0-.7869-.1575-1.551-.4702-2.2698-.3037-.6936-.735-1.3172-1.2867-1.8525-.5512-.5349-1.192-.9562-1.9076-1.2494-.7386-.3035-1.5245-.4586-2.3355-.4586-.8105 0-1.5951.1552-2.3345.4586-.7154.2932-1.356.7145-1.907 1.2494-.5519.5354-.9834 1.1589-1.2874 1.8525-.3115.7188-.4711 1.483-.4711 2.2698 0 .7872.1595 1.5502.4711 2.2702.304.6929.7357 1.3157 1.2874 1.8514.2375.2329.4947.4436.7659.6309-.0163.0764-.0243.1568-.0243.2379 0 .6511.5439 1.1793 1.2139 1.1793h4.4799c.6688 0 1.2119-.5283 1.2119-1.1793 0-.0623-.0053-.1218-.0144-.1799.3037-.2024.589-.4317.8515-.6889.5519-.5356.9832-1.1584 1.2869-1.8514zm-7.95.8587c-.0892 0-.1765-.0064-.2631-.0198-.9395-.1385-1.587-.9951-1.4441-1.9083.0342-.2224.1143-.4326.2347-.6243.0941-.1492.2036-.2217.3334-.2217.1507 0 .2982.1014.4697.2182.1869.1277.3982.2724.6539.3102.0459.0072.0958.0108.1481.0108.2025 0 .4134-.0515.615-.1007.1758-.0431.3425-.0843.4857-.0843.2348 0 .3766.1088.4354.3315.0569.2179.0669.4411.0324.6647-.1274.8111-.8597 1.4237-1.7011 1.4237zm3.0442.7031c-.0557.0532-.1272.0796-.2001.0796-.072 0-.1442-.0262-.1989-.0796l-.225-.2187-.2241.2187c-.1103.107-.2894.107-.3991 0-.1098-.1083-.1098-.2802 0-.3875l.4234-.4118c.1076-.1026.2946-.1026.3999 0l.4239.4118c.1098.1073.1098.2792 0 .3875zm1.8005-.7031c-.9509 0-1.7248-.7518-1.7248-1.6751 0-.9241.7739-1.6755 1.7248-1.6755.9495 0 1.7233.7514 1.7233 1.6755 0 .9233-.7738 1.6751-1.7233 1.6751z" fill="#1f3a31"/></svg>