<svg fill="none" height="44" viewBox="0 0 44 44" width="44" xmlns="http://www.w3.org/2000/svg" xmlns:xlink="http://www.w3.org/1999/xlink"><linearGradient id="a" gradientUnits="userSpaceOnUse" x1="-19.6874" x2="22.2228" y1="22.2228" y2="64.133"><stop offset="0" stop-color="#fbda61"/><stop offset="1" stop-color="#f76b1c"/></linearGradient><rect fill="url(#a)" fill-opacity=".15" height="44" rx="8" width="44"/><path d="m30.3111 11h-16.6222c-1.4667 0-2.6889 1.2941-2.6889 2.8471v7.5058c0 6.4059 4.95 11.6471 11 11.6471s11-5.2412 11-11.6471v-7.5058c0-1.553-1.2222-2.8471-2.6889-2.8471zm-14.4833 5.6294c0-.9059.7333-1.6823 1.5889-1.6823h.2444c.8556 0 1.5889.7764 1.5889 1.6823v1.2294c0 .9059-.7333 1.6824-1.5889 1.6824h-.2444c-.8556 0-1.5889-.7765-1.5889-1.6824zm11.8555 7.3765c-.55 2.7176-2.8722 4.7235-5.6833 4.7235s-5.1333-2.0059-5.6833-4.6588c-.1223-.6471.3055-1.2294.9777-1.2294h9.4723c.6111-.1294 1.0389.5176.9166 1.1647zm.6111-6.1471c0 .9059-.7333 1.6824-1.5888 1.6824h-.2445c-.8555 0-1.5889-.7765-1.5889-1.6824v-1.2294c0-.9059.7334-1.6823 1.5889-1.6823h.2445c.8555 0 1.5888.7764 1.5888 1.6823z" fill="#e8b339"/></svg>