<svg fill="none" height="44" viewBox="0 0 44 44" width="44" xmlns="http://www.w3.org/2000/svg" xmlns:xlink="http://www.w3.org/1999/xlink"><linearGradient id="a" gradientUnits="userSpaceOnUse" x1="-20.0984" x2="22.6339" y1="22.6339" y2="65.3661"><stop offset="0" stop-color="#6964de"/><stop offset="1" stop-color="#fca6e9"/></linearGradient><rect fill="url(#a)" fill-opacity=".15" height="44" rx="8" width="44"/><path d="m17.6913 12.3019c0 .3126.1749.5002.4746.5502 2.9224.4127 2.9224.4127 3.2846 3.2639.0375.3001.2498.4877.5495.4877s.4996-.1876.5495-.4877c.3497-2.8512.3622-2.8512 3.2846-3.2639.2997-.05.4746-.2376.4746-.5502 0-.3127-.1749-.5128-.4746-.5503-2.9224-.4127-2.9349-.4127-3.2846-3.26389-.0499-.30013-.2498-.48771-.5495-.48771s-.512.18758-.5495.48771c-.3622 2.85119-.3622 2.85119-3.2846 3.26389-.2997.0375-.4746.2376-.4746.5503zm14.9367 7.4031c.7493 0 1.3738-.6127 1.3738-1.363 0-.7504-.6245-1.3756-1.3738-1.3756s-1.3613.6252-1.3613 1.3756c0 .7503.612 1.363 1.3613 1.363zm-21.2685 0c.7493 0 1.3738-.6127 1.3738-1.363 0-.7504-.6245-1.3756-1.3738-1.3756-.7368 0-1.36128.6252-1.36128 1.3756 0 .7503.62448 1.363 1.36128 1.363zm10.6405 5.2898c.7493 0 1.3613-.6127 1.3613-1.3631 0-.7503-.612-1.363-1.3613-1.363s-1.3613.6127-1.3613 1.363c0 .7504.612 1.3631 1.3613 1.3631zm-14 4.1893c0 .3002.17484.5002.47458.5378 2.92242.4126 2.93492.4126 3.28452 3.2639.05.3126.2498.5002.5496.5002.3122 0 .512-.1876.5495-.5002.3621-2.8513.3746-2.8513 3.2845-3.2639.2998-.0376.4746-.2376.4746-.5378 0-.3126-.1748-.5127-.4746-.5502-2.9099-.4127-2.9224-.4127-3.2845-3.2639-.0375-.3126-.2373-.5002-.5495-.5002-.2998 0-.4996.1876-.5496.5002-.3496 2.8512-.3621 2.8512-3.28452 3.2639-.29974.0375-.47458.2376-.47458.5502zm19.3702 0c0 .3002.1748.5002.4871.5378 2.9099.4126 2.9224.4126 3.2845 3.2639.0375.3126.2373.5002.5495.5002.2998 0 .4996-.1876.5371-.5002.3621-2.8513.3746-2.8513 3.2845-3.2639.3123-.0376.4871-.2376.4871-.5378 0-.3126-.1748-.5127-.4871-.5502-2.9099-.4127-2.9224-.4127-3.2845-3.2639-.0375-.3126-.2373-.5002-.5371-.5002-.3122 0-.512.1876-.5495.5002-.3621 2.8512-.3746 2.8512-3.2845 3.2639-.3123.0375-.4871.2376-.4871.5502zm-5.3702 7.8159c.7493 0 1.3613-.6128 1.3613-1.3631s-.612-1.3756-1.3613-1.3756-1.3613.6253-1.3613 1.3756.612 1.3631 1.3613 1.3631z" fill="#854eca"/></svg>