<svg fill="none" height="44" viewBox="0 0 44 44" width="44" xmlns="http://www.w3.org/2000/svg" xmlns:xlink="http://www.w3.org/1999/xlink"><linearGradient id="a" gradientUnits="userSpaceOnUse" x1="-19.6874" x2="22.2228" y1="22.2228" y2="64.133"><stop offset="0" stop-color="#fbda61"/><stop offset="1" stop-color="#f76b1c"/></linearGradient><rect fill="url(#a)" fill-opacity=".15" height="44" rx="8" width="44"/><g fill="#e87040"><path d="m32.7987 13.9513-2.75-2.75c-.1289-.1289-.3038-.2013-.4861-.2013s-.3571.0724-.486.2013l-4.8126 4.8125-13.0626 13.0626c-.0785.0785-.1368.1748-.1699.2806-.0332.1059-.0403.2182-.0206.3274.0196.1092.0654.212.1334.2997.0681.0876.1563.1575.2572.2037.1419.065 3.5172 1.5899 6.8874 1.5899 2.079 0 3.7215-.5806 4.8813-1.726.6672-.6587 1.4554-1.4438 2.267-2.253v4.5138c0 .1824.0725.3572.2014.4862.1289.1289.3038.2013.4861.2013.1824 0 .3573-.0724.4862-.2013.1289-.129.2014-.3038.2014-.4862v-5.8881c.4764-.4768.9411-.9422 1.375-1.3778v3.1409c0 .1823.0724.3572.2013.4861.129.129.3038.2014.4862.2014.1823 0 .3572-.0724.4861-.2014.1289-.1289.2014-.3038.2014-.4861v-4.521c.7036-.7071 1.1608-1.1688 1.1753-1.1822.1283-.1289.2004-.3033.2004-.4852s-.0721-.3564-.2004-.4852l-2.2654-2.264 4.3265-4.3265c.1289-.1289.2013-.3037.2013-.486s-.0724-.3572-.2013-.4861zm-5.2986 4.3265-1.7775-1.7779 3.84-3.8404 1.7776 1.7779z"/><path d="m28.3869 30.4524c-.1274.1292-.199.3032-.1994.4847 0 .1823.0724.3572.2014.4861.1289.129.3038.2014.4861.2014s.3572-.0724.4861-.2014c.129-.1289.2014-.3038.2014-.4861-.0007-.1831-.0736-.3585-.2028-.4881-.1323-.123-.3065-.191-.4871-.1904s-.3543.0699-.4857.1938z"/></g></svg>