<svg fill="none" height="44" viewBox="0 0 44 44" width="44" xmlns="http://www.w3.org/2000/svg" xmlns:xlink="http://www.w3.org/1999/xlink">
  <filter id="a" color-interpolation-filters="sRGB" filterUnits="userSpaceOnUse" height="52" width="52" x="-4" y="-4">
    <feFlood flood-opacity="0" result="BackgroundImageFix" />
    <feGaussianBlur in="BackgroundImage" stdDeviation="2" />
    <feComposite in2="SourceAlpha" operator="in" result="effect1" />
    <feBlend in="SourceGraphic" in2="effect1" mode="normal" result="shape" />
  </filter>
  <linearGradient id="b" gradientUnits="userSpaceOnUse" x1="22" x2="12.5098" y1="7.18954" y2="41.9869">
    <stop offset="0" stop-color="#b600f1" />
    <stop offset="1" stop-color="#ff3ceb" />
  </linearGradient>
  <rect fill="url(#b)" fill-opacity=".15" height="44" rx="8" width="44" />
  <g fill="#e84749">
    <path d="m14.4375 27h-1.8906v-9.1328l-2.78909.9531v-1.6015l4.43749-1.6329h.2422z" />
    <path d="m25.5547 18.625c0 .5573-.1432 1.0547-.4297 1.4922-.2865.4323-.6771.7734-1.1719 1.0234.5938.2761 1.0495.6537 1.3672 1.1328.3229.4792.4844 1.0209.4844 1.625 0 1-.3386 1.7943-1.0156 2.3828-.6771.5834-1.5782.875-2.7032.875-1.1302 0-2.0364-.2942-2.7187-.8828-.6771-.5885-1.0156-1.3802-1.0156-2.375 0-.6093.1614-1.1562.4843-1.6406.323-.4844.7761-.8568 1.3594-1.1172-.4896-.25-.8776-.5911-1.1641-1.0234-.2812-.4375-.4218-.9349-.4218-1.4922 0-.9688.3125-1.737.9375-2.3047s1.4687-.8515 2.5312-.8515c1.0677 0 1.9141.2838 2.5391.8515s.9375 1.3359.9375 2.3047zm-1.6485 5.1797c0-.5625-.1692-1.0156-.5078-1.3594-.3333-.3489-.776-.5234-1.3281-.5234s-.9948.1719-1.3281.5156c-.3281.3437-.4922.7995-.4922 1.3672 0 .5573.1615 1.0026.4844 1.3359.3281.3334.7786.5 1.3515.5.573 0 1.0183-.1614 1.336-.4844.3229-.3229.4843-.7734.4843-1.3515zm-.2421-5.1094c0-.4948-.1433-.901-.4297-1.2187-.2865-.323-.6719-.4844-1.1563-.4844-.4843 0-.8672.1536-1.1484.4609-.2813.3021-.4219.7162-.4219 1.2422 0 .5208.1406.9349.4219 1.2422.2864.3073.6719.4609 1.1562.4609.4844 0 .8672-.1536 1.1485-.4609.2864-.3073.4297-.7214.4297-1.2422z" />
    <path d="m31.9922 20.7422h2.9687v1.7344h-2.9687v3.3828h-1.8438v-3.3828h-2.9843v-1.7344h2.9843v-3.1641h1.8438z" />
  </g>
</svg>
